<svg width="20" height="18" viewBox="0 0 20 18" fill="none" xmlns="http://www.w3.org/2000/svg">
<path d="M16 0C18.2091 0 20 1.79086 20 4V12C20 14.2091 18.2091 16 16 16H5.333L3.2 17.6C2.36052 18.2296 1.18718 18.0995 0.503723 17.3272L0.400002 17.2C0.140358 16.8538 0 16.4327 0 16V4C0 1.79086 1.79086 0 4 0H16ZM16 2H4C2.89543 2 2 2.89543 2 4V15.999L4.4 14.2C4.53848 14.0961 4.70091 14.0305 4.87113 14.0083L5 14H16C17.1046 14 18 13.1046 18 12V4C18 2.89543 17.1046 2 16 2ZM11 9C11.5523 9 12 9.44771 12 10C12 10.5128 11.614 10.9355 11.1166 10.9933L11 11H5C4.44771 11 4 10.5523 4 10C4 9.48716 4.38604 9.06449 4.88338 9.00673L5 9H11ZM15 5C15.5523 5 16 5.44771 16 6C16 6.51284 15.614 6.93551 15.1166 6.99327L15 7H5C4.44771 7 4 6.55229 4 6C4 5.48716 4.38604 5.06449 4.88338 5.00673L5 5H15Z" fill="black"/>
</svg>
