<svg width="150" height="27" viewBox="0 0 150 27" fill="none" xmlns="http://www.w3.org/2000/svg">
<g clip-path="url(#clip0_715_8516)">
<path d="M10.9424 13.0595L10.9823 13.0195L10.9424 13.0595Z" fill="#FFC101"/>
<path d="M10.9026 13.0195L10.9425 13.0595L10.9026 13.0195Z" fill="#FFC101"/>
<path d="M10.5033 11.4619L10.4634 11.5018L10.5033 11.4619Z" fill="#F5D23A"/>
<path d="M10.5033 11.4619L10.4634 11.5018L10.5033 11.4619Z" fill="url(#paint0_linear_715_8516)"/>
<path d="M10.9026 13.0596L2.39624 17.4126C2.7956 18.1714 3.27483 18.8902 3.87388 19.5292L10.9026 13.0596Z" fill="#FC5868"/>
<path d="M6.42969 21.4861L10.9425 13.0596H10.9025L3.87378 19.5292C4.63257 20.3279 5.47122 21.0069 6.42969 21.4861Z" fill="#FFC101"/>
<path d="M11.9009 22.5644C13.0591 22.4446 14.1773 22.1251 15.2156 21.566C16.9728 20.6874 18.4105 19.2896 19.369 17.5324L10.9425 13.0596H10.9025L6.42969 21.4861C8.107 22.4046 10.0239 22.764 11.9009 22.5644Z" fill="url(#paint1_linear_715_8516)"/>
<path d="M10.9824 13.0195L19.4888 8.66642C19.0894 7.90763 18.6102 7.18878 18.0112 6.5498L10.9824 13.0195Z" fill="#FC5868"/>
<path d="M15.4552 4.59277L10.9424 13.0193H10.9823L17.9711 6.54964C17.2523 5.75092 16.4136 5.11194 15.4552 4.59277Z" fill="#FFC101"/>
<path d="M9.98406 3.51416C7.86745 3.75378 5.87064 4.67231 4.31314 6.14995C3.59429 6.82886 2.95531 7.66752 2.47607 8.54611L10.9026 13.0589H10.9425L15.4553 4.63237C13.778 3.71384 11.8611 3.31448 9.98406 3.51416ZM10.5032 11.4614C10.5032 11.4614 10.5032 11.4215 10.5032 11.4614V11.4614Z" fill="url(#paint2_linear_715_8516)"/>
<path d="M41.0143 13.0193C41.0143 18.6104 37.8593 22.604 31.7491 22.604H26.4775V3.47461H31.7491C37.8593 3.47461 41.0143 7.50815 41.0143 13.0193ZM37.5798 13.0193C37.5798 9.02573 35.9025 6.31007 32.0287 6.31007H29.7922V19.7685H32.0287C35.8625 19.7685 37.5798 17.0529 37.5798 13.0193Z" fill="black"/>
<path d="M53.9537 18.5705H47.0048L45.8467 22.604H42.532L48.4425 3.47461H52.4761L58.4266 22.604H55.1119L53.9537 18.5705ZM53.155 15.8548L50.4793 6.70943L47.8035 15.8548H53.155Z" fill="black"/>
<path d="M73.7619 6.31007H67.4919V22.604H64.1772V6.31007H57.9072V3.47461H73.7619V6.31007Z" fill="black"/>
<path d="M85.1837 18.5705H78.2348L77.0767 22.604H73.762L79.7124 3.47461H83.746L89.6965 22.604H86.3818L85.1837 18.5705ZM84.385 15.8548L81.7093 6.70943L79.0335 15.8548H84.385Z" fill="black"/>
<path d="M107.628 3.47461V22.604H104.313V14.3772H96.885V22.604H93.5703V3.47461H96.885V11.5417H104.313V3.47461H107.628Z" fill="black"/>
<path d="M126.358 3.47461V15.8548C126.358 20.2478 123.482 22.9235 119.169 22.9235C114.856 22.9235 111.981 20.2478 111.981 15.8548V3.47461H115.295V15.7749C115.295 18.4107 116.853 20.0481 119.169 20.0481C121.486 20.0481 123.043 18.4506 123.043 15.7749V3.47461H126.358Z" fill="black"/>
<path d="M144.529 17.2925C144.529 20.6072 141.933 22.604 137.979 22.604H130.511V3.47461H137.78C141.454 3.47461 143.93 5.43148 143.93 8.38675C143.93 10.5034 142.692 11.9411 140.216 12.7398C143.091 13.2989 144.529 14.8564 144.529 17.2925ZM133.826 11.5816H137.3C139.497 11.5816 140.655 10.4634 140.655 8.82605C140.655 7.18867 139.377 6.19026 137.34 6.19026H133.826V11.5816ZM141.214 17.0529C141.214 15.3356 139.896 14.1775 137.46 14.1775H133.826V19.8883H137.34C139.697 19.8883 141.214 18.85 141.214 17.0529Z" fill="black"/>
</g>
<defs>
<linearGradient id="paint0_linear_715_8516" x1="3.79181" y1="13.511" x2="17.1565" y2="9.44577" gradientUnits="userSpaceOnUse">
<stop offset="0.29" stop-color="#064493"/>
<stop offset="1" stop-color="#3D8ACD"/>
</linearGradient>
<linearGradient id="paint1_linear_715_8516" x1="6.10086" y1="18.3668" x2="19.3368" y2="17.0057" gradientUnits="userSpaceOnUse">
<stop offset="0.29" stop-color="#064493"/>
<stop offset="1" stop-color="#3D8ACD"/>
</linearGradient>
<linearGradient id="paint2_linear_715_8516" x1="2.54214" y1="9.08813" x2="15.7793" y2="7.72689" gradientUnits="userSpaceOnUse">
<stop offset="0.27" stop-color="#064493"/>
<stop offset="1" stop-color="#3D8ACD"/>
</linearGradient>
<clipPath id="clip0_715_8516">
<rect width="150" height="26.278" fill="white"/>
</clipPath>
</defs>
</svg>
