<?xml version="1.0" encoding="utf-8"?>
<!-- Generator: Adobe Illustrator 26.0.1, SVG Export Plug-In . SVG Version: 6.00 Build 0)  -->
<svg version="1.1" id="Layer_1" xmlns="http://www.w3.org/2000/svg" xmlns:xlink="http://www.w3.org/1999/xlink" x="0px" y="0px"
	 viewBox="0 0 375.6 106.2" style="enable-background:new 0 0 375.6 106.2;" xml:space="preserve">
<style type="text/css">
	.st0{fill:#FFC101;}
	.st1{fill:#C1C1C1;}
	.st2{fill:url(#SVGID_1_);}
	.st3{fill:url(#SVGID_00000117668975576668295930000005064204361700322215_);}
	.st4{fill:url(#SVGID_00000108998815463554393630000013218158954598615972_);}
	.st5{fill:#F6B4D6;}
	.st6{fill:#F5D23A;}
	.st7{fill:#FC5868;}
	.st8{fill:url(#SVGID_00000140703509254452108140000014646151580509181354_);}
	.st9{fill:url(#SVGID_00000100362146318558344840000001266529769979717269_);}
	.st10{fill:url(#SVGID_00000073706481834943826540000000600188632755758495_);}
	.st11{fill:url(#SVGID_00000112625089085980825640000011181085980705337512_);}
	.st12{fill:url(#SVGID_00000023262743301300271270000012446501077580010148_);}
	.st13{fill:url(#SVGID_00000028306551564246602600000009919795157329804433_);}
	.st14{fill:url(#SVGID_00000093890310015922405800000014599185749867327915_);}
	.st15{fill:url(#SVGID_00000138557330580179994010000012381546758841352840_);}
</style>
<g id="Layer_1_00000003793406315789243380000014820867040113074613_">
	<g>
		<path class="st0" d="M54.8,45.5L54.8,45.5L54.8,45.5z"/>
		<polygon class="st0" points="47.8,53.9 47.9,53.8 47.8,53.8 		"/>
		<polygon class="st0" points="47.6,53.8 47.7,53.9 47.7,53.9 		"/>
		<path class="st0" d="M54.9,45.4L54.9,45.4l0.1-0.1l0,0C55,45.3,55,45.3,54.9,45.4z"/>
		<path class="st0" d="M45.5,46.3L45.5,46.3L45.5,46.3L45.5,46.3C45.5,46.3,45.5,46.3,45.5,46.3z"/>
		<polygon class="st1" points="47.7,53.9 47.7,53.9 47.7,54 47.8,53.9 47.8,53.9 47.8,53.9 		"/>
		
			<linearGradient id="SVGID_1_" gradientUnits="userSpaceOnUse" x1="30.6892" y1="-325.4314" x2="126.5592" y2="-325.4314" gradientTransform="matrix(0.9567 -0.291 -0.291 -0.9567 -122.0791 -234.5841)">
			<stop  offset="0.29" style="stop-color:#064493"/>
			<stop  offset="1" style="stop-color:#3D8ACD"/>
		</linearGradient>
		<polygon class="st2" points="47.7,53.9 47.7,53.9 47.7,54 47.8,53.9 47.8,53.9 47.8,53.9 		"/>
		<polygon class="st0" points="47.8,53.9 47.7,53.9 47.7,53.9 47.7,53.9 		"/>
		
			<linearGradient id="SVGID_00000132056230323180817590000001095639118629874107_" gradientUnits="userSpaceOnUse" x1="30.6892" y1="-325.4048" x2="126.5592" y2="-325.4048" gradientTransform="matrix(0.9567 -0.291 -0.291 -0.9567 -122.0791 -234.5841)">
			<stop  offset="0.29" style="stop-color:#064493"/>
			<stop  offset="1" style="stop-color:#3D8ACD"/>
		</linearGradient>
		<polygon style="fill:url(#SVGID_00000132056230323180817590000001095639118629874107_);" points="47.8,53.9 47.7,53.9 47.7,53.9 
			47.7,53.9 		"/>
		<polygon class="st1" points="47.8,53.9 47.8,53.9 47.8,53.9 		"/>
		
			<linearGradient id="SVGID_00000152972808003528519270000001747292738988474776_" gradientUnits="userSpaceOnUse" x1="30.6892" y1="-325.4453" x2="126.5592" y2="-325.4453" gradientTransform="matrix(0.9567 -0.291 -0.291 -0.9567 -122.0791 -234.5841)">
			<stop  offset="0.29" style="stop-color:#064493"/>
			<stop  offset="1" style="stop-color:#3D8ACD"/>
		</linearGradient>
		<polygon style="fill:url(#SVGID_00000152972808003528519270000001747292738988474776_);" points="47.8,53.9 47.8,53.9 47.8,53.9 
					"/>
		<polygon class="st5" points="47.8,53.9 47.8,53.9 47.8,53.9 		"/>
		<polygon class="st5" points="47.7,53.9 47.8,53.9 47.8,53.9 47.8,53.8 		"/>
		<polygon class="st5" points="47.8,53.8 47.8,53.8 47.7,53.9 		"/>
		<path class="st6" d="M45.5,46.2L45.5,46.2l0-0.1l0,0C45.5,46.1,45.5,46.1,45.5,46.2z"/>
		<path class="st6" d="M45.5,46.2L45.5,46.2L45.5,46.2z"/>
		<path class="st6" d="M45.5,46.3L45.5,46.3L45.5,46.3z"/>
		<path class="st7" d="M48.8,45.7L48.8,45.7L48.8,45.7z"/>
		
			<linearGradient id="SVGID_00000095326216844438078130000006714489539188255926_" gradientUnits="userSpaceOnUse" x1="81.9371" y1="-317.8603" x2="81.9371" y2="-317.8603" gradientTransform="matrix(0.9567 -0.291 -0.291 -0.9567 -122.0791 -234.5841)">
			<stop  offset="0.29" style="stop-color:#064493"/>
			<stop  offset="1" style="stop-color:#3D8ACD"/>
		</linearGradient>
		<path style="fill:url(#SVGID_00000095326216844438078130000006714489539188255926_);" d="M48.8,45.7L48.8,45.7L48.8,45.7z"/>
		
			<linearGradient id="SVGID_00000142857620197454134600000005374738261291680684_" gradientUnits="userSpaceOnUse" x1="81.9371" y1="-317.8603" x2="81.9371" y2="-317.8603" gradientTransform="matrix(0.9567 -0.291 -0.291 -0.9567 -122.0791 -234.5841)">
			<stop  offset="0.29" style="stop-color:#064493"/>
			<stop  offset="1" style="stop-color:#3D8ACD"/>
		</linearGradient>
		<path style="fill:url(#SVGID_00000142857620197454134600000005374738261291680684_);" d="M48.8,45.7L48.8,45.7L48.8,45.7z"/>
		<path class="st7" d="M48.9,45.5L48.9,45.5c0,0-0.1,0.1-0.1,0.1l0,0L48.9,45.5z"/>
		
			<linearGradient id="SVGID_00000056417928745534778380000008604476966463601559_" gradientUnits="userSpaceOnUse" x1="44.7092" y1="-317.7688" x2="112.3992" y2="-317.7688" gradientTransform="matrix(0.9567 -0.291 -0.291 -0.9567 -122.0791 -234.5841)">
			<stop  offset="0.29" style="stop-color:#064493"/>
			<stop  offset="1" style="stop-color:#3D8ACD"/>
		</linearGradient>
		<path style="fill:url(#SVGID_00000056417928745534778380000008604476966463601559_);" d="M48.9,45.5L48.9,45.5
			c0,0-0.1,0.1-0.1,0.1l0,0L48.9,45.5z"/>
		
			<linearGradient id="SVGID_00000102546900648967484620000011524532426214070406_" gradientUnits="userSpaceOnUse" x1="44.7092" y1="-317.7688" x2="112.3992" y2="-317.7688" gradientTransform="matrix(0.9567 -0.291 -0.291 -0.9567 -122.0791 -234.5841)">
			<stop  offset="0.29" style="stop-color:#064493"/>
			<stop  offset="1" style="stop-color:#3D8ACD"/>
		</linearGradient>
		<path style="fill:url(#SVGID_00000102546900648967484620000011524532426214070406_);" d="M48.9,45.5L48.9,45.5
			c0,0-0.1,0.1-0.1,0.1l0,0L48.9,45.5z"/>
		<polygon class="st6" points="45.5,46.3 45.5,46.3 45.5,46.3 		"/>
		
			<linearGradient id="SVGID_00000168829052072025588440000005045328950120900024_" gradientUnits="userSpaceOnUse" x1="72.9892" y1="-317.4833" x2="84.0992" y2="-317.4833" gradientTransform="matrix(0.9567 -0.291 -0.291 -0.9567 -122.0791 -234.5841)">
			<stop  offset="0.29" style="stop-color:#064493"/>
			<stop  offset="1" style="stop-color:#3D8ACD"/>
		</linearGradient>
		<polygon style="fill:url(#SVGID_00000168829052072025588440000005045328950120900024_);" points="45.5,46.3 45.5,46.3 45.5,46.3 
					"/>
		<polygon class="st6" points="45.5,46.2 45.5,46.2 45.5,46.3 		"/>
		
			<linearGradient id="SVGID_00000070833508185450338440000004904150233362016179_" gradientUnits="userSpaceOnUse" x1="44.7092" y1="-317.4575" x2="112.3992" y2="-317.4575" gradientTransform="matrix(0.9567 -0.291 -0.291 -0.9567 -122.0791 -234.5841)">
			<stop  offset="0.29" style="stop-color:#064493"/>
			<stop  offset="1" style="stop-color:#3D8ACD"/>
		</linearGradient>
		<polygon style="fill:url(#SVGID_00000070833508185450338440000004904150233362016179_);" points="45.5,46.2 45.5,46.2 45.5,46.3 
					"/>
		<path class="st7" d="M47.5,54L6.3,75c1.9,3.7,4.3,7.2,7.2,10.3L47.5,54z"/>
		<path class="st0" d="M25.8,94.8L47.6,54v0L47.5,54l-34,31.3C17,89.2,21.2,92.4,25.8,94.8z M40.6,62.2L40.6,62.2L40.6,62.2
			L40.6,62.2z M40.4,62.4L40.4,62.4L40.4,62.4l-0.1,0.1l0,0L40.4,62.4z"/>
		
			<linearGradient id="SVGID_00000026139774493037876670000010797547912437876143_" gradientUnits="userSpaceOnUse" x1="50.1994" y1="-95.3188" x2="114.6632" y2="-95.3188" gradientTransform="matrix(0.9948 -0.1023 -0.1023 -0.9948 -35.4601 -10.0725)">
			<stop  offset="0.29" style="stop-color:#064493"/>
			<stop  offset="1" style="stop-color:#3D8ACD"/>
		</linearGradient>
		<path style="fill:url(#SVGID_00000026139774493037876670000010797547912437876143_);" d="M52.4,100.1
			c15.3-1.7,28.9-10.7,36.2-24.3L47.8,53.9l-0.1-0.1V54L25.8,94.8C33.9,99.2,43.2,101,52.4,100.1z M49.8,61.6c0,0,0,0.1,0,0.1l0,0
			V61.6L49.8,61.6z M49.8,61.4C49.8,61.5,49.8,61.5,49.8,61.4L49.8,61.4L49.8,61.4z M46.6,62L46.6,62L46.6,62L46.6,62z M46.5,62.1
			L46.5,62.1l-0.1,0.1l0,0L46.5,62.1L46.5,62.1z"/>
		<path class="st7" d="M47.9,53.8l41.1-21c-1.9-3.7-4.3-7.2-7.2-10.3L47.9,53.8z"/>
		<path class="st0" d="M69.6,12.9L47.8,53.8l0,0l0.1-0.1l34-31.3C78.3,18.6,74.2,15.4,69.6,12.9z M54.8,45.5L54.8,45.5L54.8,45.5
			L54.8,45.5z M54.9,45.4L54.9,45.4c0,0,0.1-0.1,0.1-0.1l0,0L54.9,45.4z"/>
		
			<linearGradient id="SVGID_00000021814347536793731780000010387936046956126628_" gradientUnits="userSpaceOnUse" x1="37.6561" y1="-48.8929" x2="102.121" y2="-48.8929" gradientTransform="matrix(0.9948 -0.1023 -0.1023 -0.9948 -35.4601 -10.0725)">
			<stop  offset="0.27" style="stop-color:#064493"/>
			<stop  offset="1" style="stop-color:#3D8ACD"/>
		</linearGradient>
		<path style="fill:url(#SVGID_00000021814347536793731780000010387936046956126628_);" d="M43,7.7C27.6,9.3,14.1,18.4,6.7,32
			l40.9,21.8l0.1,0.1v-0.1l21.9-40.9C61.4,8.5,52.2,6.7,43,7.7z M45.5,46.2c0,0,0-0.1,0-0.1l0,0V46.2L45.5,46.2L45.5,46.2z
			 M45.5,46.3C45.5,46.3,45.5,46.3,45.5,46.3L45.5,46.3L45.5,46.3z M48.9,45.7L48.9,45.7L48.9,45.7z M48.9,45.6L48.9,45.6
			c0,0,0.1-0.1,0.1-0.1l0,0L48.9,45.6z"/>
	</g>
</g>
<g id="Layer_5">
	<g>
		<path d="M137.6,8.1v26.4H133V23.1h-10.3v11.4h-4.6V8.1h4.6v11.1H133V8.1H137.6z"/>
		<path d="M161.8,30.9v3.6h-18.5v-3.6h7.2V19h-5.8v-3.6h10v15.4H161.8z M155.2,12.4H150v-5h5.3L155.2,12.4z"/>
		<path d="M184,15.5v19.1c0,4.6-4,7.9-9.6,7.9c-4.9,0-9.1-2.8-9.5-7.2h4.3c0.4,2.2,2.6,3.8,5.2,3.8c3,0,5.3-1.8,5.4-4.3v-3.8l0,0
			c-1.5,2.1-3.9,3.2-6.4,3.1c-5.4,0-8.9-4-8.9-9.5s3.6-9.4,8.8-9.4c2.6-0.2,5,1,6.5,3.1l0,0v-2.8H184z M179.8,24.4v-0.3
			c0.2-2.9-2-5.3-4.9-5.5c-0.2,0-0.4,0-0.5,0c-3-0.1-5.5,2.2-5.6,5.2c0,0.2,0,0.4,0,0.5c0,3.4,2.3,6,5.6,6S179.8,27.8,179.8,24.4z"
			/>
		<path d="M208.4,22.8v11.7h-4.2V23.4c0-3-1.6-4.6-4-4.6c-3.1,0-5.1,2.2-5.1,5.8v9.9h-4.1V8.1h4.1v10.3c1.3-2.2,3.6-3.4,6.1-3.3
			C205.9,15.1,208.4,18,208.4,22.8z"/>
		<path d="M213.4,25c0-5.7,3.7-9.9,9.8-9.9s9.1,4.2,9.1,10.1V26h-14.6l0,0c0.2,3.2,2,5.4,5.4,5.4c2.1,0.1,4-1,4.8-2.9h4.3
			c-1.1,4-4.8,6.7-8.9,6.5C216.9,34.9,213.4,30.7,213.4,25z M228,23c-0.5-2.7-2-4.5-4.9-4.5s-4.6,1.8-5.2,4.5H228z"/>
		<path d="M255.6,15.2v4.3c-9.1-0.6-9.8,2.3-9.8,8.4v3.1h7.4v3.6h-16.5v-3.6h4.9V19h-4.9v-3.6h9v3.8
			C247.3,16.5,250.2,15.2,255.6,15.2z"/>
		<path d="M286.2,11.9v7.2h11.7V23h-11.7v7.6h12.8v3.8h-17.3V8.1h17.3v3.9L286.2,11.9z"/>
		<path d="M302.9,24.9c0-5.9,3.8-9.9,9-9.9c2.6-0.2,5,1,6.5,3.1l0,0V8.1h4.2v26.4h-4.2v-3.1h-0.1c-1.4,2.3-3.9,3.6-6.5,3.5
			C306.8,34.9,302.9,30.7,302.9,24.9z M307.2,24.9c0,3.7,2.5,6.3,5.8,6.3s5.5-2.6,5.5-6.2v-0.3c0-3.6-2.2-6.1-5.6-6.1
			S307.2,21.2,307.2,24.9z"/>
	</g>
	<g>
		<path d="M148.6,78.7c0,11.7-6.6,20.1-19.4,20.1h-11V58.7h11C142,58.7,148.6,67.1,148.6,78.7z M141.4,78.7c0-8.4-3.6-14-11.6-14
			h-4.7v28.2h4.7C137.9,92.9,141.4,87.1,141.4,78.7z"/>
		<path d="M176.5,90.3h-14.6l-2.5,8.5h-6.9L165,58.7h8.5l12.4,40.1H179L176.5,90.3z M174.8,84.7l-5.6-19.1l-5.6,19.1L174.8,84.7z"/>
		<path d="M218.3,64.7h-13.2v34.1h-6.9V64.7h-13.1v-6h33.2V64.7z"/>
		<path d="M242.2,90.3h-14.6l-2.5,8.5h-6.9l12.4-40.1h8.5l12.4,40.1h-6.9L242.2,90.3z M240.6,84.7L235,65.6l-5.6,19.1L240.6,84.7z"
			/>
		<path d="M289.2,58.7v40.1h-6.9V81.6h-15.6v17.2h-6.9V58.7h6.9v16.9h15.6V58.7H289.2z"/>
		<path d="M328.5,58.7v26c0,9.2-6,14.8-15.1,14.8s-15.1-5.6-15.1-14.8v-26h6.9v25.8c0,5.6,3.3,8.9,8.1,8.9s8.1-3.4,8.1-8.9V58.7
			H328.5z"/>
		<path d="M366.6,87.7c0,6.9-5.4,11.1-13.8,11.1h-15.6V58.7h15.2c7.7,0,12.9,4.1,12.9,10.3c0,4.4-2.6,7.4-7.8,9.1
			C363.6,79.3,366.6,82.6,366.6,87.7z M344.1,75.7h7.3c4.6,0,7-2.3,7-5.8s-2.6-5.6-6.9-5.6h-7.3L344.1,75.7z M359.7,87.2
			c0-3.6-2.8-6-7.9-6h-7.6v12h7.3C356.5,93.2,359.7,91,359.7,87.2L359.7,87.2z"/>
	</g>
</g>
</svg>
