<svg width="11" height="12" viewBox="0 0 11 12" fill="none" xmlns="http://www.w3.org/2000/svg">
<path d="M3.74968 4.21405C4.37103 3.5814 5.36465 3.55881 6.01259 4.14627L6.08313 4.21405L6.47204 4.61003C6.68682 4.82872 6.68682 5.18329 6.47204 5.40199C6.27259 5.60506 5.95807 5.61957 5.74219 5.44551L5.69422 5.40199L5.30531 5.00601C5.10586 4.80293 4.79134 4.78843 4.57546 4.9625L4.52749 5.00601L1.41622 8.17384C1.21678 8.37692 1.20252 8.69716 1.37348 8.91697L1.41622 8.9658L2.19404 9.75776C2.39349 9.96084 2.70801 9.97534 2.92389 9.80127L2.97186 9.75776L4.9164 7.77786C5.13119 7.55917 5.47943 7.55917 5.69422 7.77786C5.89366 7.98094 5.90791 8.30118 5.73695 8.52099L5.69422 8.56982L3.74968 10.5497C3.12832 11.1824 2.1347 11.205 1.48676 10.6175L1.41622 10.5497L0.638406 9.75776C0.0170537 9.12511 -0.00513476 8.11343 0.571835 7.4537L0.638406 7.38188L3.74968 4.21405ZM7.24985 0.650229C7.87121 0.0175792 8.86483 -0.00501238 9.51277 0.582448L9.58331 0.650229L10.3611 1.44219C10.9825 2.07484 11.0047 3.08653 10.4277 3.74625L10.3611 3.81807L7.24985 6.98591C6.6285 7.61855 5.63488 7.64115 4.98694 7.05369L4.9164 6.98591L4.52749 6.58993C4.3127 6.37123 4.3127 6.01666 4.52749 5.79797C4.72694 5.59489 5.04146 5.58038 5.25734 5.75444L5.30531 5.79797L5.69422 6.19395C5.89367 6.39702 6.20818 6.41152 6.42407 6.23746L6.47204 6.19395L9.58331 3.02611C9.78275 2.82303 9.797 2.5028 9.62605 2.28299L9.58331 2.23415L8.80549 1.44219C8.60604 1.23912 8.29152 1.22462 8.07564 1.39868L8.02767 1.44219L6.08313 3.42209C5.86834 3.64078 5.5201 3.64078 5.30531 3.42209C5.10586 3.21901 5.09162 2.89878 5.26258 2.67897L5.30531 2.63013L7.24985 0.650229Z" fill="black"/>
</svg>
