<?xml version="1.0" encoding="utf-8"?>
<!-- Generator: Adobe Illustrator 26.0.1, SVG Export Plug-In . SVG Version: 6.00 Build 0)  -->
<svg version="1.1" id="Layer_1" xmlns="http://www.w3.org/2000/svg" xmlns:xlink="http://www.w3.org/1999/xlink" x="0px" y="0px"
	 viewBox="0 0 375.6 115.2" style="enable-background:new 0 0 375.6 115.2;" xml:space="preserve">
<style type="text/css">
	.st0{fill:#FFFFFF;}
	.st1{fill:#064493;}
	.st2{fill:#FC5868;}
	.st3{fill:#FFC101;}
</style>
<g id="Layer_5">
	<g>
		<path class="st0" d="M107.8,6.6v46.2H97.4V34H82.9v18.7H72.6V6.6h10.3v18.6h14.5V6.6H107.8z"/>
		<path class="st0" d="M116.1,36c0-10.1,7-17.6,17.8-17.6s16.9,7.5,16.9,18.3v1.5h-25v0.1c0.5,4.7,3.3,7.5,8,7.5
			c2.9,0.2,5.7-1.3,7.2-3.9h9.6c-2,6.2-7,11.5-16.3,11.5C123,53.5,116.1,46.1,116.1,36z M141.3,32.6c-0.5-4.2-3-6.9-7.3-6.9
			s-7,2.7-7.8,6.9H141.3z"/>
		<path class="st0" d="M175.4,41v3.8h13v8h-30v-8h7.6V27.2h-7.6v-8h17v6.3c2.5-4.7,7.4-7,16.9-7v9.6C175.6,27,175.4,31.6,175.4,41z"
			/>
		<path class="st0" d="M197.8,36c0-10.1,7-17.6,17.8-17.6s16.9,7.5,16.9,18.3v1.5h-24.9v0.1c0.5,4.7,3.3,7.5,8,7.5
			c2.9,0.2,5.7-1.3,7.1-3.9h9.6c-2,6.2-7,11.5-16.3,11.5C204.6,53.5,197.8,46.1,197.8,36z M222.9,32.6c-0.5-4.2-3-6.9-7.3-6.9
			s-7,2.7-7.8,6.9H222.9z"/>
	</g>
	<g>
		<path class="st0" d="M83.6,73.2v13.5h-3v-5.5h-4.2v5.5h-3V73.2h3v5.4h4.2v-5.4H83.6z"/>
		<path class="st0" d="M92.6,75.8v8.3H96v2.6h-9.7v-2.6h3.4v-8.3h-3.4v-2.6H96v2.6L92.6,75.8z"/>
		<path class="st0" d="M109.2,79v7.7h-2.6v-1.8c-0.4,1.3-1.7,2.2-3.1,2c-3.2,0-5.3-2.5-5.3-7s2.1-6.9,5.8-6.9
			c2.7-0.2,5.1,1.9,5.2,4.6c0,0,0,0,0,0h-3.1c-0.2-1.4-0.9-2-2.1-2c-1.7,0-2.6,1.4-2.6,4.3s0.8,4.4,2.5,4.4c1.4,0,2.2-0.9,2.3-2.8
			h-2.5V79H109.2z"/>
		<path class="st0" d="M121.6,73.2v13.5h-3v-5.5h-4.2v5.5h-3V73.2h3v5.4h4.2v-5.4H121.6z"/>
		<path class="st0" d="M127.5,75.8v2.8h5.9v2.6h-5.9v2.9h6.5v2.6h-9.5V73.2h9.5v2.6H127.5z"/>
		<path class="st0" d="M144,86.7l-2.3-5.4h-1.8v5.4h-3V73.2h5.5c2.8,0,4.9,1.5,4.9,3.9c0,1.7-1.1,3.3-2.7,3.8l2.8,5.8H144z
			 M139.9,78.8h2.4c1,0.1,1.8-0.5,2-1.5c0-0.1,0-0.1,0-0.2c0-0.9-0.8-1.5-2-1.5h-2.4V78.8z"/>
		<path class="st0" d="M165.5,75.8v2.8h5.9v2.6h-5.9v2.9h6.5v2.6h-9.5V73.2h9.5v2.6H165.5z"/>
		<path class="st0" d="M185.5,79.9c0,3.9-2.1,6.8-6.6,6.8h-4.1V73.2h4.1C183.4,73.2,185.5,76,185.5,79.9z M182.4,79.9
			c0-2.5-0.9-4.1-3.3-4.1h-1.3v8.3h1.3C181.5,84.1,182.4,82.4,182.4,79.9z"/>
		<path class="st0" d="M197.7,73.2v8.6c-0.1,2.9-2.6,5.1-5.5,5c-2.7-0.1-4.9-2.3-5-5v-8.6h3v8.5c0,1.6,0.9,2.5,2.2,2.5
			s2.2-0.9,2.2-2.5v-8.5H197.7z"/>
		<path class="st0" d="M205.4,86.9c-3.6,0-5.6-2.5-5.6-6.9s2.1-7,5.6-7c3.1,0,5,1.8,5.4,5.2h-3.1c-0.2-1.8-1-2.6-2.3-2.6
			c-1.7,0-2.5,1.4-2.5,4.3s0.8,4.4,2.5,4.4c1.4,0,2.2-0.9,2.3-2.7h3.1C210.5,85,208.5,86.9,205.4,86.9z"/>
		<path class="st0" d="M220,84.2h-4.3l-0.6,2.5h-3l3.9-13.5h3.9l3.9,13.5h-3L220,84.2z M219.4,81.8l-1.5-5.7l-1.5,5.7H219.4z"/>
		<path class="st0" d="M236.2,75.8H232v10.9h-3V75.8h-4.2v-2.6h11.4L236.2,75.8z"/>
		<path class="st0" d="M244.7,75.8v8.3h3.4v2.6h-9.7v-2.6h3.4v-8.3h-3.4v-2.6h9.7v2.6L244.7,75.8z"/>
		<path class="st0" d="M261.4,80c0,4.3-1.9,6.9-5.5,6.9s-5.5-2.6-5.5-6.9s1.9-7,5.5-7S261.4,75.6,261.4,80z M253.5,80
			c0,2.9,0.6,4.4,2.4,4.4c1.8,0,2.4-1.5,2.4-4.4s-0.6-4.4-2.4-4.4S253.5,77.1,253.5,80z"/>
		<path class="st0" d="M273.6,73.2v13.5h-2.6l-4.4-8v8h-3V73.2h2.7l4.3,8.1v-8.1H273.6z"/>
		<path class="st0" d="M279.5,83.7h3.5l-1.8,5.9h-1.8L279.5,83.7z"/>
		<path class="st0" d="M80.6,109.7l-2.3-5.4h-1.8v5.4h-3V96.3H79c2.8,0,4.9,1.5,4.9,3.9c0,1.7-1.1,3.3-2.7,3.8l2.9,5.7H80.6z
			 M76.5,101.9h2.4c1,0.1,1.8-0.5,2-1.5c0-0.1,0-0.1,0-0.2c0-0.9-0.8-1.5-2-1.5h-2.4V101.9z"/>
		<path class="st0" d="M93.3,107.3H89l-0.7,2.5h-3l3.8-13.5H93l3.9,13.4h-3L93.3,107.3z M92.6,104.8l-1.5-5.7l-1.5,5.7H92.6z"/>
		<path class="st0" d="M104,110c-3.6,0-5.6-2.5-5.6-6.9s2.1-7,5.6-7c3,0,5,1.8,5.4,5.2h-3.1c-0.2-1.8-1-2.6-2.3-2.6
			c-1.7,0-2.5,1.4-2.5,4.3s0.8,4.4,2.5,4.4c1.4,0,2.2-0.9,2.3-2.7h3.1C109.1,108,107.1,110,104,110z"/>
		<path class="st0" d="M114.8,98.8v2.8h5.9v2.6h-5.9v2.9h6.5v2.6h-9.5V96.3h9.5v2.6H114.8z"/>
		<path class="st0" d="M144,107.3h-4.3l-0.6,2.5h-3l3.9-13.4h3.8l3.9,13.4h-3L144,107.3z M143.4,104.8l-1.5-5.7l-1.5,5.7H143.4z"/>
		<path class="st0" d="M159.5,96.3v13.4h-2.6l-4.4-8v8h-3V96.3h2.7l4.3,8.1v-8.1H159.5z"/>
		<path class="st0" d="M172.8,103c0,3.9-2.1,6.8-6.6,6.8h-4.1V96.3h4.1C170.7,96.3,172.8,99.1,172.8,103z M169.7,103
			c0-2.5-0.9-4.1-3.3-4.1h-1.3v8.3h1.3C168.8,107.1,169.7,105.5,169.7,103z"/>
		<path class="st0" d="M198.2,98.8H194v10.9h-3V98.8h-4.2v-2.6h11.4V98.8z"/>
		<path class="st0" d="M210.3,96.2v13.5h-3v-5.5h-4.2v5.5h-3V96.2h3v5.4h4.2v-5.4H210.3z"/>
		<path class="st0" d="M216.2,98.8v2.8h5.9v2.6h-5.9v2.9h6.5v2.6h-9.5V96.3h9.5v2.6H216.2z"/>
		<path class="st0" d="M241.5,98.8v2.8h5.9v2.6h-5.9v2.9h6.5v2.6h-9.5V96.3h9.5v2.6H241.5z"/>
		<path class="st0" d="M256.1,110c-3.6,0-5.6-2.5-5.6-6.9s2.1-7,5.6-7c3,0,5,1.8,5.4,5.2h-3.1c-0.2-1.8-1-2.6-2.3-2.6
			c-1.7,0-2.5,1.4-2.5,4.3s0.8,4.4,2.5,4.4c1.4,0,2.1-0.9,2.3-2.7h3.1C261.2,108,259.2,110,256.1,110z"/>
		<path class="st0" d="M274.1,103c0,4.3-1.9,6.9-5.5,6.9s-5.5-2.6-5.5-6.9s1.9-7,5.5-7S274.1,98.7,274.1,103z M266.2,103
			c0,2.9,0.6,4.4,2.4,4.4s2.4-1.5,2.4-4.4s-0.6-4.4-2.4-4.4S266.2,100.1,266.2,103z"/>
		<path class="st0" d="M286.2,96.3v13.4h-2.6l-4.4-8v8h-3V96.3h2.8l4.3,8.1v-8.1H286.2z"/>
		<path class="st0" d="M299.4,103c0,4.3-1.9,6.9-5.5,6.9s-5.5-2.6-5.5-6.9s1.9-7,5.5-7S299.4,98.7,299.4,103z M291.5,103
			c0,2.9,0.6,4.4,2.4,4.4s2.4-1.5,2.4-4.4s-0.6-4.4-2.4-4.4S291.5,100.1,291.5,103z"/>
		<path class="st0" d="M311.8,96.3v13.4h-3v-8.2l-1.9,3.6h-0.6l-1.9-3.6v8.2h-3V96.3h2.7l2.5,4.6l2.5-4.6H311.8z"/>
		<path class="st0" d="M320.8,105.2v4.5h-3v-4.5l-4.4-9h3.5l2.4,6l2.4-6h3.5L320.8,105.2z"/>
	</g>
	<g>
		<path class="st0" d="M286.1,44.1v8.8h-32.7V6.8h10.3v37.3H286.1z"/>
		<path class="st0" d="M290.1,36c0-10.3,7-17.4,16.1-17.4c4.2,0,7.9,1.5,10,4.9h0.1v-4.1h9.4v33.5h-9.4v-4.7h-0.1
			c-2.1,3.6-5.5,5.5-10.1,5.5C297.2,53.7,290.1,46.5,290.1,36z M299.7,36.1c0,5.7,3.5,9.6,8.4,9.6s8.4-3.8,8.4-9.5v-0.4
			c0-5.6-3.4-9.2-8.4-9.2S299.7,30.4,299.7,36.1L299.7,36.1z"/>
		<path class="st0" d="M344.6,48.2h-0.1v4.7h-9.4V6.8h9.4v16.8h0.1c2.5-3.5,6.2-4.9,10.5-4.9c9.1,0,15.5,7,15.5,17.4
			s-6.6,17.6-15.3,17.6C351,53.8,347,51.7,344.6,48.2z M344.3,35.8v0.4c0,5.7,3.3,9.5,8.4,9.5s8.4-3.9,8.4-9.6s-3.4-9.5-8.4-9.5
			S344.3,30.2,344.3,35.8z"/>
	</g>
	<g>
		<path d="M29.5,30.5l-3.7-3.1l0,0L29.5,30.5C29.5,30.5,29.5,30.6,29.5,30.5z"/>
		<path class="st1" d="M47.2,14.6l-3.7,3.1c6.5,7,6.8,17.8,0.7,25.1c-3.6,4.3-9.4,6.1-14.7,4.6l0,0c-0.4-0.1-0.8-0.3-1.1-0.4
			c-1.5-0.5-3-1.3-4.3-2.3c-6.1-5.1-6.9-14.1-1.9-20.2c0,0,0,0,0,0c1.9-2.2,4.6-3.4,7.5-3.3c0.4,0,0.8,0.1,1.2,0.1
			c1.7,0.2,3.4,0.9,4.8,2c4.1,3.4,4.6,9.4,1.2,13.4c0,0,0,0,0,0c-1.7,2-4.7,2.3-6.7,0.6s-2.3-4.7-0.6-6.7l-3.7-3.1
			c-3.2,4.2-2.5,10.2,1.7,13.4c4,3.1,9.7,2.6,13-1.2c5.1-6.1,4.2-15.1-1.8-20.2c0,0,0,0,0,0c-2.1-1.7-4.6-2.7-7.3-2.9
			c-0.4,0-0.8-0.1-1.2-0.1c-4.5-0.3-8.8,1.5-11.7,4.9c-6.8,8.1-5.7,20.1,2.4,26.9c2,1.7,4.3,2.9,6.8,3.7c0.4,0.1,0.8,0.2,1.2,0.2
			l0,0c7,1.6,14.3-0.8,18.9-6.3C55.5,36.7,55.2,23.3,47.2,14.6z"/>
		<path class="st2" d="M46.3,13.7c-0.5-0.5-0.9-1.1-1.5-1.5c-10.1-8.4-25.2-7.1-33.6,3.1c0,0,0,0,0,0C7.9,19.2,5.8,24,5,29.1
			l4.7,0.8c0.6-4.2,2.4-8.2,5.1-11.6c6.7-8.1,18.8-9.2,26.9-2.5c0,0,0,0,0,0c0.3,0.3,0.6,0.6,0.9,0.9s0.6,0.6,0.8,0.9l3.7-3.1
			C46.9,14.3,46.6,14,46.3,13.7z"/>
		<path class="st3" d="M18,52c-6.2-5.1-9.4-13-8.5-20.9c0-0.4,0.2-0.8,0.2-1.2L5,29.1c-0.1,0.4-0.2,0.8-0.2,1.2
			c-1.1,9.6,2.7,19.2,10.1,25.4l14.8,12.3l3.1-3.7L18,52z"/>
	</g>
</g>
</svg>
