<svg width="250" height="77" viewBox="0 0 250 77" fill="none" xmlns="http://www.w3.org/2000/svg">
<path d="M71.7273 4.33154V34.8566H64.8453V22.4839H55.2013V34.85H48.3193V4.33154H55.2013V16.6579H64.8453V4.33154H71.7273Z" fill="black"/>
<path d="M77.2852 23.8398C77.2852 17.1343 81.9441 12.2144 89.1655 12.2144C96.3869 12.2144 100.427 17.1938 100.427 24.3225V25.3211H83.7877V25.3674C84.0939 28.4556 85.9841 30.327 89.1123 30.327C90.0703 30.3882 91.0264 30.1815 91.8722 29.7303C92.718 29.2792 93.4197 28.6016 93.8977 27.7744H100.254C98.9227 31.8678 95.5949 35.3528 89.4251 35.3528C81.8643 35.3793 77.2852 30.5056 77.2852 23.8398ZM94.0308 21.5782C93.6781 18.7876 92.0341 17.0021 89.1655 17.0021C86.2969 17.0021 84.5065 18.7876 83.9475 21.5782H94.0308Z" fill="black"/>
<path d="M116.727 27.113V29.5928H125.379V34.8831H105.412V29.5928H110.484V18.0071H105.439V12.7168H116.753V16.8961C118.417 13.8079 121.705 12.2671 127.975 12.2671V18.6221C116.9 17.855 116.727 20.9233 116.727 27.113Z" fill="black"/>
<path d="M131.628 23.8398C131.628 17.1343 136.287 12.2144 143.502 12.2144C150.716 12.2144 154.763 17.1938 154.763 24.3225V25.3211H138.157V25.3674C138.463 28.4556 140.347 30.327 143.482 30.327C144.434 30.3819 145.383 30.1722 146.223 29.7213C147.062 29.2705 147.758 28.5964 148.234 27.7744H154.59C153.259 31.8678 149.931 35.3528 143.768 35.3528C136.18 35.3793 131.628 30.5056 131.628 23.8398ZM148.367 21.5782C148.014 18.7876 146.37 17.0021 143.502 17.0021C140.633 17.0021 138.843 18.7876 138.29 21.5782H148.367Z" fill="black"/>
<path d="M55.6279 48.4062V57.3204H53.6312V53.7098H50.8092V57.3204H48.8125V48.4062H50.8092V52.0037H53.6179V48.4062H55.6279Z" fill="black"/>
<path d="M61.6574 50.1256V55.6143H63.8937V57.3204H57.4111V55.6143H59.6541V50.1256H57.4111V48.4062H63.8937V50.1256H61.6574Z" fill="black"/>
<path d="M72.6937 52.2421V57.3141H70.9898V56.137C70.8488 56.562 70.5645 56.9257 70.185 57.1666C69.8055 57.4075 69.354 57.511 68.9066 57.4596C66.7834 57.4596 65.3857 55.7932 65.3857 52.8306C65.3857 49.868 66.8101 48.2743 69.2194 48.2743C69.6507 48.2447 70.0836 48.3003 70.4932 48.4378C70.9027 48.5752 71.2809 48.7919 71.6057 49.0754C71.9306 49.3588 72.1957 49.7033 72.3859 50.089C72.576 50.4748 72.6874 50.8941 72.7136 51.3229H70.6304C70.4906 50.4235 70.0247 50.0003 69.2194 50.0003C68.0946 50.0003 67.5089 50.8996 67.5089 52.8703C67.5089 54.8409 68.0413 55.7535 69.1662 55.7535C70.0913 55.7535 70.6171 55.1451 70.7169 53.935H69.0796V52.2421H72.6937Z" fill="black"/>
<path d="M80.9328 48.4062V57.3204H78.9361V53.7098H76.1207V57.3204H74.124V48.4062H76.1207V52.0037H78.9361V48.4062H80.9328Z" fill="black"/>
<path d="M84.8398 50.126V51.9909H88.7667V53.697H84.8398V55.6147H89.186V57.3208H82.8564V48.4199H89.186V50.126H84.8398Z" fill="black"/>
<path d="M95.8416 57.3208L94.3174 53.7433H93.1061V57.3208H91.1094V48.4199H94.7567C96.6136 48.4199 97.9913 49.3854 97.9913 51.0254C98.0025 51.5789 97.8328 52.121 97.5076 52.5705C97.1824 53.02 96.7192 53.3526 96.1877 53.5184L98.0712 57.3208H95.8416ZM93.1061 52.1297H94.7034C94.8653 52.1531 95.0304 52.1422 95.1878 52.098C95.3452 52.0537 95.4915 51.9769 95.6171 51.8728C95.7427 51.7686 95.8448 51.6393 95.9167 51.4933C95.9886 51.3473 96.0288 51.1878 96.0346 51.0254C96.0346 50.4302 95.5088 50.0335 94.7034 50.0335H93.1061V52.1297Z" fill="black"/>
<path d="M110.152 50.126V51.9909H114.079V53.697H110.152V55.6147H114.478V57.3208H108.148V48.4199H114.478V50.126H110.152Z" fill="black"/>
<path d="M123.457 52.8439C123.457 55.4362 122.039 57.3208 119.057 57.3208H116.335V48.4199H119.057C122.039 48.4199 123.457 50.2583 123.457 52.8439ZM121.373 52.8439C121.373 51.1907 120.808 50.126 119.184 50.126H118.345V55.6147H119.184C120.808 55.6147 121.373 54.5236 121.373 52.8439Z" fill="black"/>
<path d="M131.609 48.4199V54.1136C131.57 55.0038 131.187 55.8447 130.539 56.4608C129.891 57.077 129.029 57.4209 128.132 57.4209C127.235 57.4209 126.373 57.077 125.725 56.4608C125.077 55.8447 124.694 55.0038 124.654 54.1136V48.4199H126.651V54.0673C126.651 55.1452 127.25 55.7404 128.122 55.7404C128.994 55.7404 129.593 55.1452 129.593 54.0673V48.4199H131.609Z" fill="black"/>
<path d="M136.707 57.4728C134.331 57.4728 132.96 55.7931 132.96 52.8834C132.96 49.9737 134.331 48.2544 136.707 48.2544C138.744 48.2544 140.035 49.4646 140.301 51.6865H138.245C138.131 50.4631 137.579 49.9737 136.72 49.9737C135.569 49.9737 135.037 50.8863 135.037 52.8437C135.037 54.8011 135.569 55.7402 136.707 55.7402C137.619 55.7402 138.145 55.1582 138.258 53.9349H140.314C140.088 56.2097 138.79 57.4728 136.707 57.4728Z" fill="black"/>
<path d="M146.424 55.6941H143.555L143.123 57.3208H141.126L143.695 48.4199H146.257L148.827 57.3208H146.83L146.424 55.6941ZM145.998 54.0739L144.993 50.3046L143.981 54.0739H145.998Z" fill="black"/>
<path d="M157.241 50.126H154.412V57.3208H152.415V50.126H149.613V48.4199H157.227L157.241 50.126Z" fill="black"/>
<path d="M162.884 50.1256V55.6143H165.12V57.3204H158.638V55.6143H160.881V50.1256H158.638V48.4062H165.12V50.1256H162.884Z" fill="black"/>
<path d="M173.979 52.9034C173.979 55.747 172.714 57.4928 170.312 57.4928C167.909 57.4928 166.638 55.747 166.638 52.9034C166.638 50.0599 167.902 48.2744 170.312 48.2744C172.721 48.2744 173.979 50.0004 173.979 52.9034ZM168.721 52.9034C168.721 54.7947 169.147 55.7999 170.312 55.7999C171.476 55.7999 171.896 54.7947 171.896 52.9034C171.896 51.0121 171.476 49.9938 170.312 49.9938C169.147 49.9938 168.721 50.9526 168.721 52.9034Z" fill="black"/>
<path d="M182.086 48.4199V57.3208H180.322L177.4 52.0305V57.3208H175.403V48.4199H177.22L180.082 53.783V48.4199H182.086Z" fill="black"/>
<path d="M186.059 55.3237H188.422L187.211 59.2253H186.006L186.059 55.3237Z" fill="black"/>
<path d="M53.658 72.5564L52.1338 68.9855H50.9225V72.5564H48.9258V63.6621H52.5797C54.4367 63.6621 55.8144 64.6276 55.8144 66.2676C55.8272 66.8258 55.6559 67.3729 55.3267 67.8254C54.9974 68.2779 54.5283 68.611 53.9907 68.7739L55.9076 72.5564H53.658ZM50.9225 67.3719H52.5198C52.6818 67.3953 52.8468 67.3844 53.0042 67.3402C53.1616 67.2959 53.3079 67.2191 53.4335 67.115C53.5591 67.0108 53.6611 66.8815 53.7331 66.7355C53.805 66.5895 53.8452 66.43 53.851 66.2676C53.851 65.6658 53.3252 65.2757 52.5198 65.2757H50.9225V67.3719Z" fill="black"/>
<path d="M62.0836 70.9297H59.235L58.8024 72.5564H56.8057L59.3681 63.6621H61.9305L64.4996 72.5564H62.5029L62.0836 70.9297ZM61.6576 69.3161L60.646 65.5402L59.6343 69.3161H61.6576Z" fill="black"/>
<path d="M69.2188 72.7423C66.8361 72.7423 65.4717 71.0692 65.4717 68.1529C65.4717 65.2367 66.8361 63.5239 69.2188 63.5239C71.2155 63.5239 72.5466 64.7275 72.8129 66.9494H70.7563C70.6365 65.7326 70.0907 65.2367 69.2321 65.2367C68.0807 65.2367 67.5416 66.1492 67.5416 68.1066C67.5416 70.0641 68.0807 71.0097 69.2188 71.0097C70.124 71.0097 70.6498 70.4211 70.7629 69.2044H72.8262C72.5999 71.4197 71.3087 72.7423 69.2188 72.7423Z" fill="black"/>
<path d="M76.4075 65.3616V67.2331H80.3343V68.9326H76.4075V70.8503H80.7337V72.5564H74.3975V63.6621H80.7337V65.3616H76.4075Z" fill="black"/>
<path d="M95.842 70.9297H92.9801L92.5475 72.5564H90.5508L93.1199 63.6621H95.6756L98.2514 72.5564H96.2547L95.842 70.9297ZM95.4227 69.3161L94.4111 65.5402L93.3994 69.3161H95.4227Z" fill="black"/>
<path d="M106.165 63.6621V72.5564H104.401L101.486 67.2661V72.5564H99.4893V63.6621H101.306L104.168 69.0251V63.6621H106.165Z" fill="black"/>
<path d="M115.023 68.1126C115.023 70.7048 113.605 72.5829 110.623 72.5829H107.895V63.6621H110.623C113.605 63.6621 115.023 65.5137 115.023 68.1126ZM112.94 68.1126C112.94 66.4594 112.374 65.3881 110.75 65.3881H109.905V70.8768H110.75C112.374 70.8503 112.94 69.7592 112.94 68.1126Z" fill="black"/>
<path d="M131.934 65.3616H129.119V72.5564H127.122V65.3616H124.32V63.6621H131.934V65.3616Z" fill="black"/>
<path d="M139.982 63.6494V72.557H137.985V68.9463H135.176V72.557H133.18V63.6494H135.176V67.2468H137.985V63.6494H139.982Z" fill="black"/>
<path d="M143.888 65.3616V67.2331H147.815V68.9326H143.888V70.8503H148.214V72.5564H141.885V63.6621H148.214V65.3616H143.888Z" fill="black"/>
<path d="M160.76 65.3616V67.2331H164.687V68.9326H160.76V70.8503H165.06V72.5564H158.724V63.6621H165.06V65.3616H160.76Z" fill="black"/>
<path d="M170.451 72.7423C168.069 72.7423 166.704 71.0692 166.704 68.1529C166.704 65.2367 168.069 63.5239 170.451 63.5239C172.448 63.5239 173.779 64.7275 174.045 66.9494H171.989C171.869 65.7326 171.323 65.2367 170.465 65.2367C169.313 65.2367 168.774 66.1492 168.774 68.1066C168.774 70.0641 169.313 71.0097 170.451 71.0097C171.356 71.0097 171.882 70.4211 171.995 69.2044H174.059C173.826 71.4197 172.534 72.7423 170.451 72.7423Z" fill="black"/>
<path d="M182.418 68.1129C182.418 70.963 181.154 72.7022 178.744 72.7022C176.335 72.7022 175.077 70.963 175.077 68.1129C175.077 65.2628 176.342 63.4839 178.744 63.4839C181.147 63.4839 182.418 65.2363 182.418 68.1129ZM177.16 68.1129C177.16 70.0108 177.58 71.016 178.744 71.016C179.909 71.016 180.368 70.0042 180.368 68.1129C180.368 66.2216 179.942 65.2032 178.778 65.2032C177.613 65.2032 177.16 66.1886 177.16 68.1129Z" fill="black"/>
<path d="M190.518 63.6621V72.5564H188.755L185.839 67.2661V72.5564H183.843V63.6621H185.693L188.555 69.0251V63.6621H190.518Z" fill="black"/>
<path d="M199.291 68.1129C199.291 70.963 198.02 72.7022 195.617 72.7022C193.215 72.7022 191.943 70.963 191.943 68.1129C191.943 65.2628 193.215 63.4839 195.617 63.4839C198.02 63.4839 199.291 65.2363 199.291 68.1129ZM194.033 68.1129C194.033 70.0108 194.453 71.016 195.617 71.016C196.782 71.016 197.201 70.0108 197.201 68.1129C197.201 66.215 196.782 65.2032 195.617 65.2032C194.453 65.2032 194.033 66.1886 194.033 68.1129Z" fill="black"/>
<path d="M207.517 63.6621V72.5564H205.52V67.1669L204.249 69.5211H203.869L202.598 67.1669V72.5564H200.602V63.6621H202.405L204.063 66.7106L205.726 63.6621H207.517Z" fill="black"/>
<path d="M213.5 69.5545V72.5568H211.504V69.581L208.575 63.6294H210.878L212.502 67.5971L214.126 63.6294H216.429L213.5 69.5545Z" fill="black"/>
<path d="M190.437 29.1364V34.969H168.653V4.49023H175.535V29.1364H190.437Z" fill="black"/>
<path d="M193.106 23.8064C193.106 16.9687 197.765 12.3066 203.795 12.3066C206.604 12.3066 209.06 13.2655 210.418 15.5734H210.504V12.8489H216.727V34.969H210.504V31.8807H210.418C209.013 34.2349 206.777 35.4914 203.669 35.4914C197.839 35.4914 193.106 30.7499 193.106 23.8064ZM199.456 23.8461C199.456 27.6353 201.779 30.2077 205.067 30.2077C208.355 30.2077 210.637 27.6816 210.637 23.9321V23.6742C210.637 19.971 208.401 17.5771 205.067 17.5771C201.732 17.5771 199.456 20.1231 199.456 23.8659V23.8461Z" fill="black"/>
<path d="M229.346 31.8808H229.26V34.969H223.03V4.49023H229.26V15.5933H229.346C231.01 13.2854 233.506 12.3265 236.315 12.3265C242.365 12.3265 246.658 16.9886 246.658 23.8263C246.658 30.664 242.265 35.4914 236.448 35.4914C235.053 35.5368 233.67 35.2293 232.428 34.5977C231.186 33.9662 230.125 33.0312 229.346 31.8808ZM229.127 23.694V23.9519C229.127 27.7014 231.317 30.2275 234.691 30.2275C238.065 30.2275 240.302 27.6551 240.302 23.866C240.302 20.0768 238.025 17.5969 234.691 17.5969C231.356 17.5969 229.127 19.9908 229.127 23.694Z" fill="black"/>
<path d="M19.6672 20.2027L17.2246 18.1792L19.6672 20.2027C19.6606 20.2094 19.6672 20.2027 19.6672 20.2027Z" fill="black"/>
<path d="M31.3884 9.63525L28.9525 11.6522C31.0541 13.8921 32.2626 16.8159 32.352 19.8768C32.4415 22.9378 31.4057 25.9263 29.4383 28.2836C28.2678 29.6704 26.7208 30.6938 24.9815 31.232C23.2422 31.7701 21.3839 31.8003 19.6279 31.3189C19.3617 31.2461 19.122 31.1205 18.8625 31.0279C17.8313 30.6859 16.8675 30.1691 16.0139 29.5003C15.0511 28.705 14.2556 27.7289 13.673 26.6278C13.0903 25.5268 12.7318 24.3224 12.6181 23.0835C12.5043 21.8447 12.6375 20.5957 13.0101 19.4081C13.3826 18.2204 13.9872 17.1174 14.7892 16.1622C15.3999 15.4457 16.1668 14.8769 17.0317 14.4988C17.8966 14.1207 18.8368 13.9432 19.781 13.9799C20.0462 13.9929 20.3105 14.0194 20.573 14.0593C21.7275 14.1865 22.8229 14.6333 23.7344 15.3488C24.3767 15.8789 24.9075 16.5296 25.2964 17.2637C25.6852 17.9979 25.9245 18.8011 26.0006 19.6272C26.0766 20.4534 25.9879 21.2863 25.7395 22.0784C25.4911 22.8704 25.088 23.6061 24.5531 24.2431C24.0173 24.8885 23.2455 25.296 22.4073 25.376C21.5692 25.456 20.7334 25.2019 20.0838 24.6696C19.4342 24.1373 19.024 23.3704 18.9435 22.5377C18.863 21.7049 19.1188 20.8745 19.6545 20.2291L17.2119 18.2055C16.1995 19.5011 15.7342 21.1372 15.9143 22.7676C16.0945 24.398 16.906 25.8948 18.1772 26.9413C19.4483 27.9878 21.0794 28.5019 22.7253 28.3747C24.3711 28.2475 25.9026 27.4892 26.9957 26.26C27.7969 25.3044 28.4007 24.2013 28.7728 23.0138C29.1449 21.8262 29.2778 20.5775 29.1641 19.3389C29.0504 18.1003 28.6922 16.8961 28.11 15.795C27.5278 14.694 26.733 13.7177 25.7711 12.9219C24.3738 11.8267 22.6901 11.1521 20.9191 10.9777C20.6528 10.9446 20.3933 10.9115 20.1271 10.8983C18.6655 10.7965 17.2003 11.0366 15.8491 11.5994C14.4978 12.1621 13.2982 13.0318 12.3466 14.1386C10.9966 15.7436 10.0697 17.6571 9.64926 19.7066C9.22882 21.7561 9.32807 23.8774 9.93808 25.8793C10.5481 27.8812 11.6497 29.701 13.1437 31.1746C14.6377 32.6483 16.4772 33.7296 18.4964 34.3211C18.7493 34.4005 19.0156 34.4203 19.2751 34.4798C21.5597 35.0141 23.9488 34.9061 26.1751 34.168C28.4014 33.4299 30.3771 32.0908 31.881 30.3005C34.3231 27.377 35.6184 23.6745 35.5279 19.8763C35.4374 16.0781 33.9671 12.4406 31.3884 9.63525Z" fill="#064493"/>
<path d="M30.8293 9.07308C30.4899 8.74244 30.2103 8.37211 29.8376 8.06792C28.2343 6.74127 26.3836 5.74141 24.3913 5.12545C22.399 4.50948 20.3041 4.28948 18.2262 4.478C16.1484 4.66652 14.1282 5.25987 12.2811 6.22417C10.4341 7.18847 8.79628 8.50483 7.46129 10.0981C5.27657 12.7141 3.84799 15.8706 3.32812 19.2305L6.44963 19.7661C6.87173 16.9558 8.05675 14.3129 9.8773 12.1216C10.9447 10.847 12.2545 9.79373 13.7317 9.0221C15.2089 8.25048 16.8247 7.77557 18.4867 7.6245C20.1486 7.47343 21.8243 7.64917 23.4179 8.14167C25.0115 8.63417 26.4919 9.43379 27.7744 10.4948C27.994 10.6734 28.1604 10.8982 28.3667 11.09C28.5731 11.2818 28.7461 11.4603 28.9258 11.6521L31.3618 9.63517C31.2087 9.4434 31.0157 9.25824 30.8293 9.07308Z" fill="#FC5868"/>
<path d="M11.9798 34.3872C9.95708 32.7245 8.38134 30.589 7.39395 28.1722C6.40656 25.7554 6.03841 23.1328 6.32251 20.5398C6.32251 20.2753 6.43565 20.024 6.47559 19.7661L3.32746 19.2305C3.28753 19.4884 3.20766 19.7397 3.17438 20.0042C2.79911 23.1369 3.21883 26.3132 4.39529 29.2435C5.57174 32.1738 7.46753 34.765 9.90991 36.781L19.7603 44.9281L21.7903 42.5012L11.9798 34.3872Z" fill="#FFC101"/>
</svg>
