<?xml version="1.0" encoding="utf-8"?>
<!-- Generator: Adobe Illustrator 26.0.1, SVG Export Plug-In . SVG Version: 6.00 Build 0)  -->
<svg version="1.1" id="Layer_1" xmlns="http://www.w3.org/2000/svg" xmlns:xlink="http://www.w3.org/1999/xlink" x="0px" y="0px"
	 viewBox="0 0 1099.5 1284.9" style="enable-background:new 0 0 1099.5 1284.9;" xml:space="preserve">
<style type="text/css">
	.st0{fill:#30404D;}
</style>
<g>
	<path class="st0" d="M1038.2,575.3C1011.1,292.6,821.5,79.2,593.4,52.7l-52,590.3L1038.2,575.3z"/>
	<path class="st0" d="M52,709.6c26.9,279.7,212.8,491.8,437.6,521.7l51.9-588.4L52,709.6z"/>
	<path class="st0" d="M541.1,641.1l133.8,572.6c36.6-11.8,71.9-28.6,105.3-50l-232.8-521l-5.5-2.7L541.1,641.1z"/>
	<path class="st0" d="M542.8,646.3l482,149.4c9.8-43.7,15.3-88.6,16.6-133.7l-494.4-21.3l-4.8,4.3L542.8,646.3z"/>
	<path class="st0" d="M541.2,643.5l360.3,410.3c26.3-32.5,49.5-68.5,69-107.2L547.2,641.1l-5.9,1L541.2,643.5z"/>
</g>
</svg>
