<svg xmlns="http://www.w3.org/2000/svg" viewBox="0 0 1000 1000">
  <defs>
    <style>
      .cls-1 {
        fill: #566875;
      }
    </style>
  </defs>
  <g id="Layer_3" data-name="Layer 3">
    <path class="cls-1" d="M526.25,676.25a185,185,0,1,0,0-370,202.5,202.5,0,1,0,0,405,220,220,0,1,0,0-440,237.5,237.5,0,1,0,0,475,255,255,0,1,0,0-510,272.49,272.49,0,1,0,0,545,290,290,0,1,0,0-580,307.49,307.49,0,1,0,0,615,325,325,0,1,0,0-650c-91.56,0-177.59,35.6-242.24,100.25S183.76,417.19,183.76,508.75,219.36,686.34,284,751,434.69,851.24,526.25,851.24c96.24,0,186.66-37.42,254.62-105.37S886.24,587.49,886.24,491.25,848.82,304.59,780.87,236.63,622.49,131.26,526.25,131.26v-15a375,375,0,1,1,0,750,357.49,357.49,0,1,1,0-715c90.89,0,176.29,35.34,240.47,99.52a340.26,340.26,0,0,1,0,480.94c-64.18,64.18-149.58,99.52-240.47,99.52a322.49,322.49,0,1,1,0-645,305,305,0,1,1,0,610,287.49,287.49,0,1,1,0-575,270,270,0,1,1,0,540,252.5,252.5,0,1,1,0-505,235,235,0,1,1,0,470,217.5,217.5,0,1,1,0-435,200,200,0,1,1,0,400,182.5,182.5,0,1,1,0-365,165,165,0,1,1,0,330,147.61,147.61,0,0,1-139.6-99.65L401,551.9a132.72,132.72,0,0,0,125.27,89.35,150,150,0,1,0,0-300,167.5,167.5,0,1,0,0,335Z"/>
  </g>
</svg>
