<?xml version="1.0" encoding="utf-8"?>
<!-- Generator: Adobe Illustrator 26.0.1, SVG Export Plug-In . SVG Version: 6.00 Build 0)  -->
<svg version="1.1" id="Layer_1" xmlns="http://www.w3.org/2000/svg" xmlns:xlink="http://www.w3.org/1999/xlink" x="0px" y="0px"
	 viewBox="0 0 1325.4 1613.9" style="enable-background:new 0 0 1325.4 1613.9;" xml:space="preserve">
<style type="text/css">
	.st0{fill:#C2B5A7;}
</style>
<path class="st0" d="M1291,724.7c-33.8-352.4-270-618.4-554.1-651.5l-64.8,735.9L1291,724.7z"/>
<path class="st0" d="M62.3,892.2c33.5,348.7,265.1,613.1,545.2,650.4l64.6-733.6L62.3,892.2z"/>
<path class="st0" d="M671.9,810.9l0.2-1.8l-1.5,0.2L671.9,810.9z"/>
<path class="st0" d="M238.4,287.2c-30.2,36.2-57.1,76.1-80.4,118.9l512.6,403.3L238.4,287.2z"/>
<path class="st0" d="M671.6,806.7l166.7,713.8c45.6-14.8,89.5-35.7,131.1-62.3L679.4,808.6l-6.9-3.4L671.6,806.7z"/>
<path class="st0" d="M506,97.3c-41.1,14.1-80.9,33.3-118.7,57.2l285.3,650.7L506,97.3z"/>
</svg>
